<?xml version="1.0" encoding="utf-8"?>
<!-- Generator: Adobe Illustrator 18.0.0, SVG Export Plug-In . SVG Version: 6.00 Build 0)  -->
<!DOCTYPE svg PUBLIC "-//W3C//DTD SVG 1.1//EN" "http://www.w3.org/Graphics/SVG/1.1/DTD/svg11.dtd">
<svg version="1.1" id="Warstwa_1" xmlns="http://www.w3.org/2000/svg" xmlns:xlink="http://www.w3.org/1999/xlink" x="0px" y="0px"
	 viewBox="0 0 91 57" enable-background="new 0 0 91 57" xml:space="preserve">
<g>
	<path fill="#010101" d="M44.4,10L44.4,10C44.4,9.2,44.4,9.7,44.4,10z"/>
	<path fill="#010101" d="M60.6,24.1h1c0.8,0,3.6,0,3.7,0c0.1,0,0.8-0.2,1.6-0.4l4.5-4.1c0.6-0.6,1.1-1.8,1.5-2.5l2.3-3.6
		c0.4-0.7,0.8-1.1,0.8-1.1c0,0,0.7,0.1,1.5,0.1H82c0.8,0,1.2,0.2,1.2,1.1V48c0,0.8-0.3,1.3-1.2,1.3H39.6c-0.8,0-1.4-0.4-1.4-1.3
		v-4.5c0,0-0.3-1-1.8-1c-1.5,0-3,0-4.5,0c-1.5,0-1.5,1-1.5,1V51c0,3.1,4,6,7.1,6h47.2c3.1,0,6.3-2.9,6.3-6V21.9c0,0,0-10.4,0-11.4
		c0-3-4.1-5.8-6-5.8H73.2c-1.9,0-3.8,4-3.8,4l-3.8,5.8l0,0c-0.9,1.9-2.8,1.9-2.8,1.9h-2.2c0,0-1.9,0.2-1.9,1.7c0,1.5,0,3,0,4.5
		C58.7,24,60.6,24.1,60.6,24.1z"/>
	<path fill="#010101" d="M44.4,10L44.4,10C44.4,10,44.4,10,44.4,10C44.4,10,44.4,10,44.4,10z"/>
	<path fill="#010101" d="M44,10C44,10,44,10.1,44,10C44,10.1,44,10.1,44,10z"/>
	<path fill="#010101" d="M34.5,0C24.1,0,15.6,8.4,15.6,18.7c0,4.7,1.7,8.9,4.6,12.2L1,50c-1.3,1.3-1.3,3.3,0,4.6
		c0.6,0.6,1.5,0.9,2.3,0.9s1.7-0.3,2.3-0.9L25.3,35c2.7,1.5,5.9,2.4,9.3,2.4c10.4,0,18.9-8.4,18.9-18.7C53.4,8.4,45,0,34.5,0z
		 M34.5,31c-6.8,0-12.4-5.5-12.4-12.3c0-6.8,5.6-12.3,12.4-12.3c6.8,0,12.4,5.5,12.4,12.3C46.9,25.5,41.4,31,34.5,31z"/>
</g>
</svg>
